<svg xmlns="http://www.w3.org/2000/svg" height="40" viewBox="0 -960 960 960" width="40"><path d="M361.638-298.667q-41.451 0-70.045-28.622Q263-355.91 263-397.362t28.621-70.045Q320.243-496 361.695-496q41.451 0 70.045 28.621 28.593 28.622 28.593 70.074 0 41.451-28.621 70.045-28.622 28.593-70.074 28.593ZM196.666-50.001q-43.824 0-74.912-31.787Q90.667-113.575 90.667-156v-581.001q0-44.099 31.087-75.382 31.088-31.284 74.912-31.284H241V-866q0-17.783 13.919-31.225 13.918-13.441 31.666-13.441 19.432 0 32.09 13.441 12.658 13.442 12.658 31.225v22.333h297.334V-866q0-17.783 13.218-31.225 13.218-13.441 31.866-13.441 18.932 0 32.09 13.441Q719-883.783 719-866v22.333h44.334q44.099 0 75.382 31.284Q870-781.1 870-737.001V-156q0 42.425-31.284 74.212Q807.433-50 763.334-50H196.666Zm0-105.999h566.668v-412H196.666v412Zm0-479.999h566.668v-101.002H196.666v101.002Zm0 0v-101.002 101.002Z"/></svg>